<svg xmlns="http://www.w3.org/2000/svg" xmlns:xlink="http://www.w3.org/1999/xlink" width="156" height="156" viewBox="0 0 156 156">
  <defs>
    <linearGradient id="linear-gradient" x1="1.542" y1="-0.174" x2="0.151" y2="0.727" gradientUnits="objectBoundingBox">
      <stop offset="0" stop-color="#df1839"/>
      <stop offset="1" stop-color="#0d0a64"/>
    </linearGradient>
  </defs>
  <g id="Group_213" data-name="Group 213" transform="translate(-2 -2)">
    <circle id="Ellipse_114" data-name="Ellipse 114" cx="78" cy="78" r="78" transform="translate(2 2)" fill="url(#linear-gradient)"/>
    <g id="contract" transform="translate(47.471 48.226)">
      <path id="Path_415" data-name="Path 415" d="M66.059,22.549a4.759,4.759,0,0,0-8.125-3.365l-3.11,3.11L51.368,25.75V15.607A7.341,7.341,0,0,0,50.319,1H8.345A7.353,7.353,0,0,0,1,8.345V60.812a1.05,1.05,0,0,0,1.049,1.049H7.3V65.01a1.05,1.05,0,0,0,1.049,1.049H50.319a1.05,1.05,0,0,0,1.049-1.049v-25.8L61.554,29.025l1.078-1.078a14.06,14.06,0,0,1-3.865,7.193l-4.992,4.992,1.484,1.484,4.992-4.992a16.131,16.131,0,0,0,4.741-11.107,4.705,4.705,0,0,0,1.067-2.968Zm-6.641-1.881a2.661,2.661,0,1,1,3.763,3.763L60.812,26.8l-3.763-3.763ZM55.565,24.52l1.14,1.14L43.5,38.866l-1.14-1.14ZM30.609,52.211l2.158-4.318,3.188,3.188-4.318,2.158Zm3.355-6.089,6.911-6.911,3.763,3.763-6.911,6.911ZM50.319,3.1a5.247,5.247,0,1,1,0,10.493H13.477a7.323,7.323,0,0,0,0-10.493ZM9.395,13.486V10.444a1.051,1.051,0,0,1,1.049-1.049h3.042A5.263,5.263,0,0,1,9.395,13.486ZM3.1,59.763V8.345A5.247,5.247,0,0,1,13.486,7.3H10.444A3.152,3.152,0,0,0,7.3,10.444V59.763Zm46.171,4.2H9.395V15.691H49.269V27.848L44.638,32.48H13.592v2.1H42.539l-2.1,2.1H13.592v2.1h24.75l-6.6,6.6a1.028,1.028,0,0,0-.185.278l-.012-.006-3.148,6.3a1.049,1.049,0,0,0,.2,1.211l.306.309-2.406,2.406,1.484,1.484,2.406-2.406.307.307a1.049,1.049,0,0,0,.742.307,1.064,1.064,0,0,0,.469-.11l6.3-3.148L38.19,52.3a1.028,1.028,0,0,0,.278-.185l8.395-8.395,2.407-2.407ZM46.121,41.49l-1.14-1.14L58.189,27.143l1.14,1.14Z" transform="translate(-1 -1)" fill="#fff"/>
      <path id="Path_416" data-name="Path 416" d="M13,19H44.48v2.1H13Z" transform="translate(-0.408 -0.112)" fill="#fff"/>
      <path id="Path_417" data-name="Path 417" d="M13,23H44.48v2.1H13Z" transform="translate(-0.408 0.085)" fill="#fff"/>
      <path id="Path_418" data-name="Path 418" d="M13,27H44.48v2.1H13Z" transform="translate(-0.408 0.283)" fill="#fff"/>
      <path id="Path_419" data-name="Path 419" d="M13,51H24.543v2.1H13Z" transform="translate(-0.408 1.467)" fill="#fff"/>
      <path id="Path_420" data-name="Path 420" d="M13,55H44.48v2.1H13Z" transform="translate(-0.408 1.664)" fill="#fff"/>
    </g>
  </g>
</svg>
