<svg xmlns="http://www.w3.org/2000/svg" xmlns:xlink="http://www.w3.org/1999/xlink" width="85" height="80" viewBox="0 0 85 80">
  <defs>
    <clipPath id="clip-Business">
      <rect width="85" height="80"/>
    </clipPath>
  </defs>
  <g id="Business" clip-path="url(#clip-Business)">
    <g id="briefcase" transform="translate(0.718 -28.282)">
      <g id="Group_128" data-name="Group 128" transform="translate(0 32)">
        <path id="Path_213" data-name="Path 213" d="M79.281,45.909h-15.3V41.736A9.747,9.747,0,0,0,54.245,32H29.209a9.747,9.747,0,0,0-9.736,9.736v4.173H4.173A4.173,4.173,0,0,0,0,50.082V77.9a4.173,4.173,0,0,0,2.782,3.917v18.337a4.173,4.173,0,0,0,4.173,4.173H76.5a4.173,4.173,0,0,0,4.173-4.173V81.816A4.173,4.173,0,0,0,83.453,77.9V50.082A4.173,4.173,0,0,0,79.281,45.909ZM22.254,41.736a6.963,6.963,0,0,1,6.954-6.954H54.245A6.963,6.963,0,0,1,61.2,41.736v4.173H58.362l.056-4.173a4.181,4.181,0,0,0-4.173-4.173H29.157a4.181,4.181,0,0,0-4.173,4.173v.014l.038,4.159H22.254Zm33.381-.019-.056,4.192H27.8l-.043-4.173a1.391,1.391,0,0,1,1.391-1.391H54.245A1.391,1.391,0,0,1,55.636,41.717ZM77.89,100.154a1.391,1.391,0,0,1-1.391,1.391H6.954a1.391,1.391,0,0,1-1.391-1.391V82.072H15.3v4.173a1.391,1.391,0,0,0,1.391,1.391h5.564a1.391,1.391,0,0,0,1.391-1.391V82.072H59.808v4.173A1.391,1.391,0,0,0,61.2,87.636h5.564a1.391,1.391,0,0,0,1.391-1.391V82.072H77.89Zm-59.808-15.3V77.9a1.356,1.356,0,0,1,.427-.99,1.324,1.324,0,0,1,.964-.4A1.391,1.391,0,0,1,20.863,77.9v6.954Zm44.508,0V77.9a1.391,1.391,0,0,1,1.391-1.391,1.358,1.358,0,0,1,.992.426,1.342,1.342,0,0,1,.4.965v6.954ZM80.672,77.9a1.391,1.391,0,0,1-1.391,1.391H68.154V77.9a4.173,4.173,0,0,0-8.345,0V79.29H23.645V77.9a4.173,4.173,0,0,0-8.345,0V79.29H4.173A1.391,1.391,0,0,1,2.782,77.9V50.082a1.391,1.391,0,0,1,1.391-1.391H79.281a1.391,1.391,0,0,1,1.391,1.391Z" transform="translate(0 -32)" fill="#df1839"/>
      </g>
    </g>
  </g>
</svg>
