<svg xmlns="http://www.w3.org/2000/svg" xmlns:xlink="http://www.w3.org/1999/xlink" width="80" height="80" viewBox="0 0 80 80">
  <defs>
    <clipPath id="clip-Cities_Across_India">
      <rect width="80" height="80"/>
    </clipPath>
  </defs>
  <g id="Cities_Across_India" data-name="Cities Across India" clip-path="url(#clip-Cities_Across_India)">
    <g id="india" transform="translate(-17.247 2)">
      <g id="Group_281" data-name="Group 281" transform="translate(26.56 0)">
        <path id="Path_537" data-name="Path 537" d="M94.6,25.354l-2.377-3.5a1.223,1.223,0,0,0-1.044-.536l-4.609.121a1.224,1.224,0,0,0-.986.544l-.469.7-4.781,3.06a1.224,1.224,0,0,0-.559.917l-.1,1.112H77.816L74.167,24.8a1.224,1.224,0,0,0-1.884.436l-1.519,3.291L56.228,22.322l.834-3.179a1.224,1.224,0,0,0-.787-1.468l-1.207-.413-1.987-3.037.285-.07a1.224,1.224,0,0,0,.772-1.794l-.686-1.2,2.625-5.389a1.224,1.224,0,0,0-.469-1.584l-2.359-1.42a1.217,1.217,0,0,0-.7-.174l-5.035.266L41.24.1a1.224,1.224,0,0,0-1.12.071L36.737,2.2a1.224,1.224,0,0,0-.178,1.97l1.886,1.654.1,4.192a1.224,1.224,0,0,0,.322.8l3.1,3.376L39.4,18.823a1.221,1.221,0,0,0-.153.571l-.01.509-4.52,4.967-2.292-.734a1.224,1.224,0,0,0-1.532.77l-1.262,3.7a1.224,1.224,0,0,0,.415,1.367l.65.5,1.654,3.386.012.738-4.993,1.79a1.224,1.224,0,0,0-.126,2.251l1.528.748a1.224,1.224,0,0,0-.307,1.68l1.866,2.779a1.222,1.222,0,0,0,.474.415l3.027,1.493a1.224,1.224,0,0,0,1.514-.355l1.334-1.748.718,1.7-.431,2.266a1.224,1.224,0,0,0,.054.653L47.044,75.354a1.236,1.236,0,0,0,1.148.8,1.223,1.223,0,0,0,.437-.081l2.453-.937a1.225,1.225,0,0,0,.654-.588l.538-1.057.837-1.022,2.1-2.521a1.223,1.223,0,0,0,.265-.569l1.109-6.236a1.221,1.221,0,0,0-.043-.6l-.586-1.767L57.074,57.4l.933-.575,1.167-.138a1.223,1.223,0,0,0,.843-.491l1.446-1.972a4.739,4.739,0,0,0,1.456-.726c.464-.432.9-.9,1.348-1.349a3.646,3.646,0,0,0,.907-1.133c.227-.532.444-1.067.665-1.6l4.352-2.391a1.224,1.224,0,0,0,.625-.922l.213-1.721,1.627-1.245,2.183.435a1.224,1.224,0,0,0,1.42-1.522l-2.08-7.641,2.554-1.059L78.486,34.5a1.223,1.223,0,0,0,.536.192l1.3.142-1.452,2.147a1.224,1.224,0,0,0,1.074,1.908l.957-.047,2.212,3.022a1.224,1.224,0,0,0,2.2-.531l.6-3.8,1.028.2a1.224,1.224,0,0,0,1.439-1.009l.665-4.175.591-.78a1.223,1.223,0,0,0,.238-.578l.1-.75,3.6-1.251a1.224,1.224,0,0,0,.8-.9l.422-1.992A1.221,1.221,0,0,0,94.6,25.354ZM92.112,27.1l-3.66,1.272a1.223,1.223,0,0,0-.811.995l-.156,1.177-.581.766a1.225,1.225,0,0,0-.233.547l-.515,3.23-1.028-.2a1.224,1.224,0,0,0-1.439,1.01l-.34,2.141-.866-1.183a1.222,1.222,0,0,0-.361-.328l1.36-2.011a1.224,1.224,0,0,0-.88-1.9l-3.022-.332-2.05-1.339a1.224,1.224,0,0,0-1.138-.106l-4.146,1.719a1.224,1.224,0,0,0-.712,1.452l1.844,6.773-.787-.157a1.223,1.223,0,0,0-.982.228l-2.475,1.893a1.223,1.223,0,0,0-.471.822l-.2,1.609-4.179,2.3a1.223,1.223,0,0,0-.541.6l-.8,1.936-1.613,1.613-1.12.467a1.222,1.222,0,0,0-.515.405L58.359,54.32l-.907.107a1.225,1.225,0,0,0-.5.174l-1.543.951a1.223,1.223,0,0,0-.52.657l-1.383,4.182a1.223,1.223,0,0,0,0,.769l.616,1.858-1,5.611-1.9,2.28L50.3,72.042a1.212,1.212,0,0,0-.144.22l-.384.755-.858.328L39.437,47.738l.436-2.3a1.226,1.226,0,0,0-.075-.7l-1-2.367.058-1.955a1.224,1.224,0,0,0-2.2-.778L34.013,43.11l-1.831-.9-.836-1.42.691-.361a1.224,1.224,0,0,0-.029-2.183l-.579-.283-.507-.248L34.016,36.6a1.224,1.224,0,0,0,.811-1.172L34.8,33.543a1.223,1.223,0,0,0-.124-.517l-1.9-3.89a1.223,1.223,0,0,0-.356-.435l-.181-.138.59-1.731,1.9.608A1.224,1.224,0,0,0,36,27.1l5.359-5.889a1.222,1.222,0,0,0,.318-.8l.012-.665,2.851-5.14a1.224,1.224,0,0,0-.169-1.421L40.985,9.5l-.106-4.269a1.225,1.225,0,0,0-.417-.89l-1.027-.9,1.4-.838L46.8,5.213a1.226,1.226,0,0,0,.556.1l4.951-.262,1.079.649L50.97,10.665a1.224,1.224,0,0,0,.037,1.142l.2.356-.389.1a1.224,1.224,0,0,0-.733,1.858l3.163,4.836a1.224,1.224,0,0,0,.628.488l.528.181-.813,3.1a1.224,1.224,0,0,0,.7,1.436l16.6,7.087a1.223,1.223,0,0,0,1.591-.613l1.356-2.938,2.763,2.251a1.224,1.224,0,0,0,.773.275h3.405A1.224,1.224,0,0,0,82,29.11l.152-1.627,4.494-2.876a1.224,1.224,0,0,0,.358-.351l.259-.388,3.307-.087L92.283,26.3Z" transform="translate(-26.56 0)" fill="#fff"/>
      </g>
    </g>
  </g>
</svg>
