<svg xmlns="http://www.w3.org/2000/svg" xmlns:xlink="http://www.w3.org/1999/xlink" width="80" height="80" viewBox="0 0 80 80">
  <defs>
    <clipPath id="clip-FilesProcessed">
      <rect width="80" height="80"/>
    </clipPath>
  </defs>
  <g id="FilesProcessed" clip-path="url(#clip-FilesProcessed)">
    <g id="document_1_" data-name="document (1)" transform="translate(-31.15 2.259)">
      <g id="Group_104" data-name="Group 104" transform="translate(54.907 53.418)">
        <g id="Group_103" data-name="Group 103" transform="translate(0)">
          <path id="Path_164" data-name="Path 164" d="M139.727,344h-2.485a1.242,1.242,0,1,0,0,2.484h2.485a1.242,1.242,0,1,0,0-2.484Z" transform="translate(-136 -344)" fill="#fff"/>
        </g>
      </g>
      <g id="Group_106" data-name="Group 106" transform="translate(62.361 53.418)">
        <g id="Group_105" data-name="Group 105">
          <path id="Path_165" data-name="Path 165" d="M215.057,344H185.242a1.242,1.242,0,1,0,0,2.484h29.815a1.242,1.242,0,1,0,0-2.484Z" transform="translate(-184 -344)" fill="#fff"/>
        </g>
      </g>
      <g id="Group_108" data-name="Group 108" transform="translate(54.907 45.964)">
        <g id="Group_107" data-name="Group 107" transform="translate(0)">
          <path id="Path_166" data-name="Path 166" d="M139.727,296h-2.485a1.242,1.242,0,0,0,0,2.485h2.485a1.242,1.242,0,0,0,0-2.485Z" transform="translate(-136 -296)" fill="#fff"/>
        </g>
      </g>
      <g id="Group_110" data-name="Group 110" transform="translate(62.361 45.964)">
        <g id="Group_109" data-name="Group 109">
          <path id="Path_167" data-name="Path 167" d="M215.057,296H185.242a1.242,1.242,0,1,0,0,2.485h29.815a1.242,1.242,0,1,0,0-2.485Z" transform="translate(-184 -296)" fill="#fff"/>
        </g>
      </g>
      <g id="Group_112" data-name="Group 112" transform="translate(54.907 38.511)">
        <g id="Group_111" data-name="Group 111" transform="translate(0)">
          <path id="Path_168" data-name="Path 168" d="M139.727,248h-2.485a1.242,1.242,0,1,0,0,2.485h2.485a1.242,1.242,0,1,0,0-2.485Z" transform="translate(-136 -248)" fill="#fff"/>
        </g>
      </g>
      <g id="Group_114" data-name="Group 114" transform="translate(62.361 38.511)">
        <g id="Group_113" data-name="Group 113">
          <path id="Path_169" data-name="Path 169" d="M215.057,248H185.242a1.242,1.242,0,1,0,0,2.485h29.815a1.242,1.242,0,1,0,0-2.485Z" transform="translate(-184 -248)" fill="#fff"/>
        </g>
      </g>
      <g id="Group_116" data-name="Group 116" transform="translate(54.907 31.057)">
        <g id="Group_115" data-name="Group 115" transform="translate(0)">
          <path id="Path_170" data-name="Path 170" d="M139.727,200h-2.485a1.242,1.242,0,1,0,0,2.485h2.485a1.242,1.242,0,1,0,0-2.485Z" transform="translate(-136 -200)" fill="#fff"/>
        </g>
      </g>
      <g id="Group_118" data-name="Group 118" transform="translate(62.361 31.057)">
        <g id="Group_117" data-name="Group 117">
          <path id="Path_171" data-name="Path 171" d="M215.057,200H185.242a1.242,1.242,0,1,0,0,2.485h29.815a1.242,1.242,0,1,0,0-2.485Z" transform="translate(-184 -200)" fill="#fff"/>
        </g>
      </g>
      <g id="Group_120" data-name="Group 120" transform="translate(54.907 23.603)">
        <g id="Group_119" data-name="Group 119" transform="translate(0)">
          <path id="Path_172" data-name="Path 172" d="M139.727,152h-2.485a1.242,1.242,0,1,0,0,2.485h2.485a1.242,1.242,0,1,0,0-2.485Z" transform="translate(-136 -152)" fill="#fff"/>
        </g>
      </g>
      <g id="Group_122" data-name="Group 122" transform="translate(62.361 23.603)">
        <g id="Group_121" data-name="Group 121">
          <path id="Path_173" data-name="Path 173" d="M215.057,152H185.242a1.242,1.242,0,1,0,0,2.485h29.815a1.242,1.242,0,1,0,0-2.485Z" transform="translate(-184 -152)" fill="#fff"/>
        </g>
      </g>
      <g id="Group_124" data-name="Group 124" transform="translate(40)">
        <g id="Group_123" data-name="Group 123">
          <path id="Path_174" data-name="Path 174" d="M102.1,18.556a1.174,1.174,0,0,0-.063-.319c-.014-.04-.024-.078-.041-.117a1.242,1.242,0,0,0-.248-.364L84.353.364a1.242,1.242,0,0,0-.364-.248C83.95.1,83.912.088,83.873.075A1.237,1.237,0,0,0,83.552.01c-.021,0-.045-.01-.072-.01H48.7a1.242,1.242,0,0,0-1.242,1.242V4.969H41.242A1.242,1.242,0,0,0,40,6.211V73.294a1.242,1.242,0,0,0,1.242,1.242H93.418a1.242,1.242,0,0,0,1.242-1.242V67.083h6.211a1.242,1.242,0,0,0,1.242-1.242V18.634C102.114,18.607,102.1,18.583,102.1,18.556ZM84.722,4.241,97.873,17.392H84.722Zm7.454,67.811H42.485V7.454h4.969V65.841A1.242,1.242,0,0,0,48.7,67.083h43.48ZM99.629,64.6H49.938V2.485h32.3v16.15a1.242,1.242,0,0,0,1.242,1.242h16.15Z" transform="translate(-40)" fill="#fff"/>
        </g>
      </g>
      <g id="Group_126" data-name="Group 126" transform="translate(54.907 11.18)">
        <g id="Group_125" data-name="Group 125" transform="translate(0)">
          <path id="Path_175" data-name="Path 175" d="M144.7,72h-7.454A1.242,1.242,0,0,0,136,73.242V80.7a1.242,1.242,0,0,0,1.242,1.242H144.7a1.242,1.242,0,0,0,1.242-1.242V73.242A1.242,1.242,0,0,0,144.7,72Zm-1.242,7.454h-4.969V74.485h4.969Z" transform="translate(-136 -72)" fill="#fff"/>
        </g>
      </g>
    </g>
  </g>
</svg>
