<svg xmlns="http://www.w3.org/2000/svg" xmlns:xlink="http://www.w3.org/1999/xlink" width="85" height="80" viewBox="0 0 85 80">
  <defs>
    <clipPath id="clip-Gold">
      <rect width="85" height="80"/>
    </clipPath>
  </defs>
  <g id="Gold" clip-path="url(#clip-Gold)">
    <g id="Out_line" data-name="Out line" transform="translate(-15 -96.839)">
      <path id="Path_211" data-name="Path 211" d="M99.938,160.588l-5.6-18.2A1.4,1.4,0,0,0,93,141.4H66.269L80.7,126.449A6.956,6.956,0,0,1,81.8,130.2a1.4,1.4,0,0,0,2.8,0,7.008,7.008,0,0,1,7-7,1.4,1.4,0,0,0,0-2.8,7.008,7.008,0,0,1-7-7,1.4,1.4,0,0,0-2.8,0,6.956,6.956,0,0,1-1.065,3.7l-10.956-4.979A1.394,1.394,0,0,0,69.2,112v0H52.4a1.4,1.4,0,0,0-.99.41L38.162,125.657A6.958,6.958,0,0,1,37,121.8a1.4,1.4,0,0,0-2.8,0,7.008,7.008,0,0,1-7,7,1.4,1.4,0,1,0,0,2.8,6.958,6.958,0,0,1,3.857,1.163L22.01,141.81h0a1.4,1.4,0,0,0-.349.578l-5.6,18.2A1.4,1.4,0,0,0,17.4,162.4H98.6a1.4,1.4,0,0,0,1.338-1.812ZM74.3,144.2l-4.738,15.4H48.7l14.869-15.4Zm8.9-25.756a9.88,9.88,0,0,0,3.356,3.356,9.88,9.88,0,0,0-3.356,3.357,9.88,9.88,0,0,0-3.356-3.357,9.88,9.88,0,0,0,3.356-3.356Zm-4.541.793A6.958,6.958,0,0,1,74.8,120.4a1.4,1.4,0,1,0,0,2.8,6.959,6.959,0,0,1,3.96,1.232L46.04,158.321l-4.654-15.127L69.5,115.076ZM52.979,114.8h12.84l-26.6,26.6H26.38l6.657-6.657A6.958,6.958,0,0,1,34.2,138.6a1.4,1.4,0,0,0,2.8,0,7.008,7.008,0,0,1,7-7,1.4,1.4,0,1,0,0-2.8,6.958,6.958,0,0,1-3.857-1.163ZM35.6,126.843a9.88,9.88,0,0,0,3.356,3.357,9.88,9.88,0,0,0-3.356,3.356,9.88,9.88,0,0,0-3.356-3.356A9.88,9.88,0,0,0,35.6,126.843ZM19.3,159.6l4.738-15.4H38.766L43.5,159.6Zm53.2,0,4.738-15.4H91.966L96.7,159.6Z" transform="translate(0 0)" fill="#df1839"/>
      <rect id="Rectangle_180" data-name="Rectangle 180" width="6.166" height="2.643" transform="translate(51.833 117.821)" fill="#df1839"/>
      <rect id="Rectangle_181" data-name="Rectangle 181" width="5.285" height="3.523" transform="translate(48.31 121.344)" fill="#df1839"/>
    </g>
  </g>
</svg>
