<svg xmlns="http://www.w3.org/2000/svg" xmlns:xlink="http://www.w3.org/1999/xlink" width="80" height="80" viewBox="0 0 80 80">
  <defs>
    <clipPath id="clip-HappyCustomers">
      <rect width="80" height="80"/>
    </clipPath>
  </defs>
  <g id="HappyCustomers" clip-path="url(#clip-HappyCustomers)">
    <g id="value" transform="translate(-23.699 -23.483)">
      <path id="Path_158" data-name="Path 158" d="M93.446,285.34l-.4.213a5.448,5.448,0,0,0-6.472-1.621l-.022.012-.933.5a7.088,7.088,0,0,0-8.117-.733l-5.026,2.734H65.79a9.662,9.662,0,0,1-4.182-.958l-.92-.445a15.783,15.783,0,0,0-16.427,1.6c-.022.017-.043.033-.063.052l-2.221,1.978a7.7,7.7,0,0,1-2.907,1.621l-1.262-4.141a1,1,0,0,0-.957-.708H26.108a1,1,0,0,0-.993,1.121L28.7,315.932a1,1,0,0,0,.993.879H45.8a1,1,0,0,0,.957-1.292l-2.117-6.946,6.593-4.167a3.967,3.967,0,0,1,2.894-.375l.063.014,13.411,2.47A17.354,17.354,0,0,0,78.327,305a1,1,0,0,0,.122-.072L101.645,289a1,1,0,0,0,.291-1.34A6.367,6.367,0,0,0,93.446,285.34Zm-5.953.371a3.415,3.415,0,0,1,3.735.826l-8.8,4.745-.517.272a7.625,7.625,0,0,0-1.2-2.189Zm-9.02-.247.024-.014a5.086,5.086,0,0,1,5.173.049L79.2,287.907a7.6,7.6,0,0,0-2.857-1.286Zm-47.9,29.347-3.336-27.362H36.11l8.342,27.362Zm46.8-11.573a15.341,15.341,0,0,1-9.414,1.308l-13.378-2.464a5.963,5.963,0,0,0-4.348.589l-.046.028-6.153,3.89-4.384-14.376a9.712,9.712,0,0,0,3.653-2.043l2.19-1.95a13.791,13.791,0,0,1,14.321-1.378l.92.445a11.673,11.673,0,0,0,5.053,1.158h8.922a5.642,5.642,0,0,1,5.534,4.582l-6.466-.293a38.723,38.723,0,0,0-7.037.325,1,1,0,1,0,.274,1.981,36.675,36.675,0,0,1,6.672-.308l7.61.344h.045a1,1,0,0,0,1-1c0-.162-.007-.322-.017-.482l1.044-.55L94.4,287.1a4.369,4.369,0,0,1,5.258.843Z" transform="translate(0 -214.812)" fill="#fff"/>
      <path id="Path_159" data-name="Path 159" d="M76.974,434.447a3.149,3.149,0,1,0,3.149-3.149A3.149,3.149,0,0,0,76.974,434.447Zm3.149-1.148a1.148,1.148,0,1,1-1.148,1.148,1.148,1.148,0,0,1,1.148-1.148Z" transform="translate(-43.221 -338.585)" fill="#fff"/>
      <path id="Path_160" data-name="Path 160" d="M225.717,35.876v-3.3a7.591,7.591,0,1,0-15.183,0v3.3a7.591,7.591,0,1,0,15.183,0Zm-13.182,0v-3.3a5.591,5.591,0,1,1,11.182,0v3.3a5.591,5.591,0,1,1-11.182,0Z" transform="translate(-154.52 0)" fill="#fff"/>
      <path id="Path_161" data-name="Path 161" d="M88.78,158.8h24.472a1,1,0,0,0,1-1v-2.3h16.753a1,1,0,0,0,1-1v-6.491a7.5,7.5,0,0,0-7.019-7.477,1.167,1.167,0,0,0-1.03.57,4.59,4.59,0,0,1-7.241-.177,1,1,0,0,0-.829-.406,7.414,7.414,0,0,0-3.679,1.073,8.407,8.407,0,0,0-5.867-2.91,1.216,1.216,0,0,0-1.031.6,5.385,5.385,0,0,1-8.5-.208,1,1,0,0,0-.829-.405,8.37,8.37,0,0,0-5.808,2.534c-.126.129-.246.263-.363.4a7.436,7.436,0,0,0-3.41-1.07,1.169,1.169,0,0,0-1.03.57,4.589,4.589,0,0,1-7.241-.177,1,1,0,0,0-.829-.406,7.493,7.493,0,0,0-7.3,7.49v6.491a1,1,0,0,0,1,1H87.78v2.3A1,1,0,0,0,88.78,158.8Zm26.68-16.244a6.591,6.591,0,0,0,9.868.026,5.5,5.5,0,0,1,4.678,5.432v5.491H114.252v-6.416a8.367,8.367,0,0,0-.924-3.829A5.406,5.406,0,0,1,115.46,142.56Zm-19.907-1.851a7.386,7.386,0,0,0,11.157.027,6.424,6.424,0,0,1,5.544,6.357V156.8H89.78v-9.711a6.461,6.461,0,0,1,5.772-6.384ZM72,153.508v-5.491a5.53,5.53,0,0,1,4.876-5.457,6.59,6.59,0,0,0,9.866.025,5.457,5.457,0,0,1,1.952.689,8.379,8.379,0,0,0-.915,3.818v6.416Z" transform="translate(-37.409 -94.739)" fill="#fff"/>
      <path id="Path_162" data-name="Path 162" d="M344.669,59.914V57.029a6.769,6.769,0,0,0-13.538,0v2.885a6.769,6.769,0,1,0,13.538,0Zm-11.538,0V57.029a4.769,4.769,0,1,1,9.538,0v2.885a4.769,4.769,0,1,1-9.538,0Z" transform="translate(-255.014 -21.059)" fill="#fff"/>
      <path id="Path_163" data-name="Path 163" d="M113.184,59.914V57.029a6.769,6.769,0,1,0-13.538,0v2.885a6.769,6.769,0,1,0,13.538,0Zm-11.538,0V57.029a4.769,4.769,0,1,1,9.538,0v2.885a4.769,4.769,0,1,1-9.538,0Z" transform="translate(-62.114 -21.059)" fill="#fff"/>
    </g>
  </g>
</svg>
