<svg xmlns="http://www.w3.org/2000/svg" xmlns:xlink="http://www.w3.org/1999/xlink" width="85" height="80" viewBox="0 0 85 80">
  <defs>
    <clipPath id="clip-Home">
      <rect width="85" height="80"/>
    </clipPath>
  </defs>
  <g id="Home" clip-path="url(#clip-Home)">
    <g id="house" transform="translate(0.494 -20.346)">
      <g id="Group_127" data-name="Group 127" transform="translate(0 21.461)">
        <path id="Path_212" data-name="Path 212" d="M84.107,70.687a5.255,5.255,0,0,0-7.257-1.4L66,76.544l-.032-22.6,3.769,3.531a4.291,4.291,0,0,0,2.944,1.164h.006a4.324,4.324,0,0,0,3.138-1.362,4.307,4.307,0,0,0-.2-6.088l-7.145-6.694a1.213,1.213,0,0,0-1.659,1.771l7.145,6.694a1.88,1.88,0,0,1-1.283,3.252h0A1.872,1.872,0,0,1,71.4,55.7h0L43.025,29.125a1.213,1.213,0,0,0-1.662,0l-28.3,26.659a1.88,1.88,0,0,1-2.579-2.737L40.9,24.4a1.883,1.883,0,0,1,2.575,0L61.268,41.062a1.213,1.213,0,0,0,1.659-1.771L45.134,22.622a4.314,4.314,0,0,0-5.9.008L29.5,31.8l0-1.636a1.931,1.931,0,0,0-1.93-1.928h0l-6.965.01a1.93,1.93,0,0,0-1.928,1.933l.019,11.8-9.869,9.3a4.307,4.307,0,0,0,2.825,7.44l.132,0a4.276,4.276,0,0,0,2.95-1.172l3.761-3.543L18.5,64.684a25.57,25.57,0,0,0-3.684-.27H12.743v-.728a4.435,4.435,0,0,0-4.43-4.43H4.43A4.435,4.435,0,0,0,0,63.687V82.7a1.213,1.213,0,1,0,2.427,0V63.687a2.005,2.005,0,0,1,2-2H8.313a2.005,2.005,0,0,1,2,2V92.421a2.005,2.005,0,0,1-2,2H4.43a2.005,2.005,0,0,1-2-2V90.3A1.213,1.213,0,1,0,0,90.3v2.123a4.435,4.435,0,0,0,4.43,4.43H8.313a4.435,4.435,0,0,0,4.43-4.43v-.165l17.77,6.729q.049.019.1.033a8.475,8.475,0,0,0,2.307.328,7.854,7.854,0,0,0,1.228-.1l26.115-3.764.018,0a12.784,12.784,0,0,0,6.057-2.714l.045-.038L83.254,77.557A5.255,5.255,0,0,0,84.107,70.687ZM27.07,30.666l.006,3.419L21.113,39.7,21.1,30.674ZM42.2,31.675,63.54,51.668l.037,26.5-3.436,2.3-3.638-.2-.1-.966A7.684,7.684,0,0,0,50.234,72.5l-.022-15.765a2.2,2.2,0,0,0-2.2-2.193h0l-11.565.016a2.2,2.2,0,0,0-2.193,2.2L34.273,70.5a23.061,23.061,0,0,1-6.523-2.585q-.383-.224-.773-.434c-.1-.055-.2-.106-.306-.159-.158-.083-.316-.166-.476-.245-.127-.063-.256-.123-.384-.184s-.272-.13-.409-.192-.28-.124-.421-.184-.257-.111-.386-.165c-.144-.06-.29-.117-.435-.174-.129-.05-.258-.1-.388-.149s-.289-.106-.434-.157-.272-.095-.409-.14-.278-.092-.418-.136-.3-.092-.448-.136c-.129-.038-.257-.076-.387-.112-.169-.047-.339-.091-.508-.134-.08-.02-.159-.044-.239-.063l-.019-13.429ZM47.806,72.2,37.657,71.029l-.956-.11-.02-13.932,11.1-.016Zm33.83,3.55L64.782,90.906a10.355,10.355,0,0,1-4.875,2.179L33.8,96.848l-.016,0-.018,0a5.786,5.786,0,0,1-2.448-.156L12.743,89.661V66.841h2.076a23.17,23.17,0,0,1,5.233.6l.19.045c.21.051.42.1.628.159l.055.015q.314.086.625.18l.112.034q.331.1.659.214l.068.024q.683.236,1.352.514l.073.031q.333.14.662.29l.018.008q.318.146.631.3l.074.036q.306.153.608.316l.114.062c.2.111.405.224.605.341a25.49,25.49,0,0,0,9.343,3.252l.031,0,13.6,1.565q.113.016.224.037a5.263,5.263,0,0,1,4.11,3.781,5.332,5.332,0,0,1,.164.883l.054.543-25.48-2.232a1.213,1.213,0,0,0-.212,2.418l26.938,2.36h.019l.019,0,5.08.285.068,0c.024,0,.048,0,.072-.005s.054,0,.081-.006.072-.012.107-.02.051-.01.076-.017a1.182,1.182,0,0,0,.114-.041c.02-.008.041-.014.061-.024a1.2,1.2,0,0,0,.164-.092l4.312-2.886h0L78.2,71.3a2.816,2.816,0,0,1,3.435,4.448Z" transform="translate(0 -21.461)" fill="#df1839"/>
      </g>
    </g>
  </g>
</svg>
