<svg xmlns="http://www.w3.org/2000/svg" xmlns:xlink="http://www.w3.org/1999/xlink" width="80" height="80" viewBox="0 0 80 80">
  <defs>
    <clipPath id="clip-LoanDisbursed">
      <rect width="80" height="80"/>
    </clipPath>
  </defs>
  <g id="LoanDisbursed" clip-path="url(#clip-LoanDisbursed)">
    <g id="pay" transform="translate(1.159 1.159)">
      <path id="Path_101" data-name="Path 101" d="M119.9,324.14l-3.258-1.952a6.411,6.411,0,0,0-3.287-.908h-4.9a11.57,11.57,0,0,0-2.974.384L90.706,325.63a5.152,5.152,0,0,0-3.479,3.226l-13-7.031a5.092,5.092,0,0,0-3.478-.575,4.8,4.8,0,0,0-1.294.425,5.029,5.029,0,0,0-2.2,2.047,5.126,5.126,0,0,0-.677,2.545,5.07,5.07,0,0,0,2.529,4.425L92.406,344.63a6.4,6.4,0,0,0,3.368.958H113.8a6.376,6.376,0,0,0,2.351-.448l3.754-1.482v1.93H132.7V320H119.9Zm-4.694,18.62a3.847,3.847,0,0,1-1.407.269H95.774a3.848,3.848,0,0,1-2.038-.586L70.411,328.491a2.545,2.545,0,0,1-1.272-2.221,2.6,2.6,0,0,1,.343-1.279,2.516,2.516,0,0,1,1.1-1.014,2.415,2.415,0,0,1,.64-.207,2.7,2.7,0,0,1,.49-.046,2.509,2.509,0,0,1,1.254.332l14.092,7.615c.016.078.016.155.037.233a5.13,5.13,0,0,0,4.946,3.787,12.587,12.587,0,0,0,2.108-.376l13.292-3.557-.66-2.472-13.249,3.541c-.583.134-1.336.288-1.492.3a2.559,2.559,0,0,1-2.473-1.885,2.336,2.336,0,0,1-.074-.474s-.01-.31,0-.419a2.586,2.586,0,0,1,1.882-2.256l14.769-3.951a8.945,8.945,0,0,1,2.311-.3h4.9a3.837,3.837,0,0,1,1.972.545l4.574,2.739v13.783Zm7.253-20.2h7.676v20.47h-7.676Zm0,0" transform="translate(-55.937 -268.826)" fill="#fff"/>
      <path id="Path_102" data-name="Path 102" d="M52.766,10.235,45.9,3.372A11.434,11.434,0,0,0,37.762,0H21.677a6.44,6.44,0,0,0-2.86.675L15.949,2.109a3.792,3.792,0,0,1-1.856.4l-1.3-.046V0H0V28.146H12.794V24.308h2.175l.774.512a14.1,14.1,0,0,0,7.286,2.345V43.5H76.762V10.235ZM10.235,25.587H2.559V2.558h7.676Zm6.924-2.9-1.423-.941H12.794V5.025L14,5.069a6.423,6.423,0,0,0,3.093-.67l2.865-1.434a3.845,3.845,0,0,1,1.719-.405H37.762a8.9,8.9,0,0,1,6.332,2.622l5.054,5.054H38.591l-3.105-3.1L33.677,8.938l9.037,9.038a2.566,2.566,0,0,1-3.621,3.636l-7.548-7.548-.9.768a6.781,6.781,0,0,1-8.623.127l-.742-.6-1.612,1.988.75.608a9.326,9.326,0,0,0,2.606,1.469V24.6a11.537,11.537,0,0,1-5.87-1.914Zm18.2-1.2,1.93,1.931a5.154,5.154,0,0,0,7.228.006,6.476,6.476,0,1,0,.727-.928,5.032,5.032,0,0,0,.419-4.591H62.795A7.7,7.7,0,0,0,69.086,24.2v5.33a7.7,7.7,0,0,0-6.291,6.291H37A7.7,7.7,0,0,0,30.7,29.531V24.2a7.637,7.637,0,0,0,4.653-2.709Zm10.7,5.374A3.838,3.838,0,1,1,49.9,30.7,3.838,3.838,0,0,1,46.057,26.866ZM74.2,40.939H25.587V18.958a9.3,9.3,0,0,0,5.757-1.471l2.183,2.183a5.105,5.105,0,0,1-4.1,2.079H28.146V31.984h1.279A5.118,5.118,0,0,1,34.543,37.1v1.279h30.7V37.1a5.118,5.118,0,0,1,5.117-5.117h1.279V21.749H70.365a5.118,5.118,0,0,1-5.117-5.117V15.352H43.708l-2.559-2.559H74.2Zm0,0" transform="translate(0 0)" fill="#fff"/>
    </g>
  </g>
</svg>
