<svg xmlns="http://www.w3.org/2000/svg" xmlns:xlink="http://www.w3.org/1999/xlink" width="80" height="80" viewBox="0 0 80 80">
  <defs>
    <clipPath id="clip-Icons_Products">
      <rect width="80" height="80"/>
    </clipPath>
  </defs>
  <g id="Icons_Products" data-name="Icons Products" clip-path="url(#clip-Icons_Products)">
    <g id="Group_465" data-name="Group 465" transform="translate(-380.664 -1468.346)">
      <g id="Layer_2" data-name="Layer 2" transform="translate(380.684 1478.398)">
        <g id="Layer_1" data-name="Layer 1" transform="translate(0 0)">
          <path id="Path_756" data-name="Path 756" d="M79.088,49.448H65.864a4.769,4.769,0,1,1,0-9.529H79.088a4.769,4.769,0,1,1,0,9.529ZM65.864,41.986a2.7,2.7,0,0,0,0,5.4H79.088a2.7,2.7,0,0,0,0-5.4Z" transform="translate(-11.333 -7.432)" fill="#df1839"/>
          <path id="Path_757" data-name="Path 757" d="M74.246,58.628H65.864a4.769,4.769,0,1,1,0-9.529h8.382a4.769,4.769,0,1,1,0,9.529Zm-8.382-7.47a2.71,2.71,0,1,0,0,5.412h8.382a2.71,2.71,0,0,0,0-5.412Z" transform="translate(-11.333 -9.141)" fill="#df1839"/>
          <path id="Path_758" data-name="Path 758" d="M48.238,49.934a1.033,1.033,0,0,1-.382-.073,27.872,27.872,0,0,1-5.981-3.312,11.336,11.336,0,0,0-6.673-2.1H30.123a1.025,1.025,0,0,1-1.033-1.025V25.22a1.033,1.033,0,0,1,1.033-1.033H35.2a11.279,11.279,0,0,0,6.673-2.1c.887-.643,1.815-1.375,2.8-2.14,4.118-3.255,8.781-6.876,13.761-6.876H60.16a5.338,5.338,0,0,1,5.33,5.33V28.979a5.346,5.346,0,0,1-.423,2.075,4.435,4.435,0,0,1-4,2.718,4.834,4.834,0,0,1-4.492-2.653A15.69,15.69,0,0,1,55.253,23.8a1.034,1.034,0,1,1,2.067.041,13.663,13.663,0,0,0,1.1,6.38A2.759,2.759,0,0,0,61,31.73a2.368,2.368,0,0,0,2.2-1.465A3.255,3.255,0,0,0,63.448,29V18.417a3.255,3.255,0,0,0-3.255-3.255H58.435c-4.272,0-8.634,3.426-12.491,6.437-.993.814-1.937,1.522-2.865,2.2a13.321,13.321,0,0,1-7.877,2.49H31.133v16.1H35.2a13.321,13.321,0,0,1,7.877,2.49,25.968,25.968,0,0,0,5.542,3.068,1.033,1.033,0,0,1-.382,1.986Z" transform="translate(-5.409 -2.433)" fill="#df1839"/>
          <path id="Path_759" data-name="Path 759" d="M81.021,31.008H72.313a1.025,1.025,0,0,1-1.034-1.025v-7.47a1.033,1.033,0,0,1,1.033-1.033h8.707a4.769,4.769,0,1,1,0,9.529ZM73.347,28.95h7.674a2.7,2.7,0,1,0,0-5.4H73.347Z" transform="translate(-13.266 -3.998)" fill="#df1839"/>
          <path id="Path_760" data-name="Path 760" d="M83.013,40.228a1.033,1.033,0,0,1,0-2.059,2.7,2.7,0,0,0,0-5.4,1.033,1.033,0,1,1,0-2.067,4.769,4.769,0,1,1,0,9.529Z" transform="translate(-15.259 -5.715)" fill="#df1839"/>
          <path id="Path_761" data-name="Path 761" d="M28.364,49.828h-7.7a1.025,1.025,0,0,1-1.025-1.033V23.225A1.017,1.017,0,0,1,20.665,22.2h7.7A1.025,1.025,0,0,1,29.4,23.225V48.794a1.033,1.033,0,0,1-1.034,1.033ZM21.7,47.769H27.33V24.259H21.7Z" transform="translate(-3.649 -4.133)" fill="#df1839"/>
          <path id="Path_762" data-name="Path 762" d="M17.007,55.57H1.033A1.033,1.033,0,0,1,0,54.512v-2.2a1.033,1.033,0,1,1,2.059,0v1.164H15.982V15.109H2.058v1.628a1.033,1.033,0,1,1-2.059,0V14.083A1.033,1.033,0,0,1,1.033,13.05H17.007a1.033,1.033,0,0,1,1.033,1.033V54.512a1.033,1.033,0,0,1-1.033,1.058Z" transform="translate(0.009 -2.429)" fill="#df1839"/>
          <path id="Path_763" data-name="Path 763" d="M1.033,21.119A1.033,1.033,0,0,1,0,20.085V17.334a1.033,1.033,0,0,1,2.059,0v2.751a1.025,1.025,0,0,1-1.025,1.033Z" transform="translate(0.008 -3.051)" fill="#df1839"/>
          <path id="Path_765" data-name="Path 765" d="M1.033,61.528A1.033,1.033,0,0,1,0,60.494v-2.71a1.033,1.033,0,0,1,2.059,0v2.751A1.025,1.025,0,0,1,1.033,61.528Z" transform="translate(0.008 -10.584)" fill="#df1839"/>
          <path id="Path_766" data-name="Path 766" d="M13.3,31.144a1.025,1.025,0,0,1-1.025-1.025V14.063a1.033,1.033,0,1,1,2.059,0V30.118A1.025,1.025,0,0,1,13.3,31.144Z" transform="translate(-2.278 -2.408)" fill="#df1839"/>
          <path id="Path_810" data-name="Path 810" d="M13.3,31.144a1.025,1.025,0,0,1-1.025-1.025V14.063a1.033,1.033,0,1,1,2.059,0V30.118A1.025,1.025,0,0,1,13.3,31.144Z" transform="translate(-12.275 3.374)" fill="#df1839"/>
          <path id="Path_811" data-name="Path 811" d="M13.3,31.144a1.025,1.025,0,0,1-1.025-1.025V14.063a1.033,1.033,0,1,1,2.059,0V30.118A1.025,1.025,0,0,1,13.3,31.144Z" transform="translate(-12.275 17.208)" fill="#df1839"/>
          <path id="Path_767" data-name="Path 767" d="M80.637,19.678a1.042,1.042,0,0,1-.431-.1,1.025,1.025,0,0,1-.5-1.367A35.554,35.554,0,0,1,89.752,6.153L77.7,2.938c-1.424,1.139-6.38,5.4-6.413,9.765a1.033,1.033,0,0,1-2.067,0c.057-6.12,7.324-11.482,7.641-11.71a1.033,1.033,0,0,1,.871-.171l14.648,3.9a1.018,1.018,0,0,1,.3,1.839A34.3,34.3,0,0,0,81.573,19.092,1.017,1.017,0,0,1,80.637,19.678Z" transform="translate(-12.882 -0.146)" fill="#df1839"/>
          <path id="Path_768" data-name="Path 768" d="M59.284,70.288a1.033,1.033,0,0,1-1.017-1.213c.057-.334,1.432-8.138,2.742-12.6a1.033,1.033,0,0,1,1.977.578c-.96,3.255-1.994,8.593-2.441,11.051l12.963-1.139-.814-8.024a1.033,1.033,0,1,1,2.051-.2l.871,9.057a1.017,1.017,0,0,1-.236.757,1.05,1.05,0,0,1-.7.374L59.373,70.28Z" transform="translate(-10.84 -10.393)" fill="#df1839"/>
          <path id="Path_769" data-name="Path 769" d="M58.1,65.047a1.017,1.017,0,0,1-.342-.065l-8.414-2.954a1.033,1.033,0,0,1-.659-1.213c.13-.545,3.255-13.346,10.856-15.73a1.033,1.033,0,1,1,.618,1.969c-5.444,1.709-8.4,10.49-9.228,13.346l7.511,2.637a1.034,1.034,0,0,1-.342,2.01Z" transform="translate(-9.053 -8.383)" fill="#df1839"/>
          <path id="Path_770" data-name="Path 770" d="M56.556,14.81a1.034,1.034,0,0,1-.993-.773c-1.156-4.378,1.5-12.361,1.628-12.695a1.058,1.058,0,0,1,.545-.618c4.508-1.986,15.787.724,16.276.814a1.033,1.033,0,1,1-.488,2c-2.954-.684-11.051-2.213-14.542-1.1-.529,1.709-2.279,7.8-1.424,11.059a1.033,1.033,0,0,1-.732,1.261A1.009,1.009,0,0,1,56.556,14.81Z" transform="translate(-10.285 0.002)" fill="#df1839"/>
          <path id="Path_771" data-name="Path 771" d="M63.037,42.059a1.042,1.042,0,0,1-.814-.415c-2.051-2.726,0-7.405.244-7.926a1.025,1.025,0,1,1,1.872.814c-.48,1.042-1.628,4.346-.464,5.835a1.025,1.025,0,0,1-.2,1.44A1.05,1.05,0,0,1,63.037,42.059Z" transform="translate(-11.411 -6.146)" fill="#df1839"/>
        </g>
      </g>
    </g>
  </g>
</svg>
