<svg xmlns="http://www.w3.org/2000/svg" xmlns:xlink="http://www.w3.org/1999/xlink" width="80" height="80" viewBox="0 0 80 80">
  <defs>
    <clipPath id="clip-MiniMillion">
      <rect width="80" height="80"/>
    </clipPath>
  </defs>
  <g id="MiniMillion" clip-path="url(#clip-MiniMillion)">
    <g id="Group_466" data-name="Group 466" transform="translate(-2467.621 -1475.431)">
      <text id="_" data-name="₹" transform="translate(2503.14 1525.95)" fill="#df1839" font-size="16" font-family="SegoeUI-Semibold, Segoe UI" font-weight="600"><tspan x="-4.441" y="0">₹</tspan></text>
      <g id="Layer_2" data-name="Layer 2" transform="translate(2467.059 1483.041)">
        <g id="Layer_1" data-name="Layer 1" transform="translate(0)">
          <path id="Path_812" data-name="Path 812" d="M88.311,26.064a.978.978,0,0,1-.707-.294l-9.386-9.331a1.009,1.009,0,1,1,1.431-1.423L89,24.371a.982.982,0,0,1-.691,1.693Z" transform="translate(-15.977 -3.016)" fill="#df1839"/>
          <path id="Path_813" data-name="Path 813" d="M2.34,26.085a1.005,1.005,0,0,1-.715-1.717l9.354-9.331A1.009,1.009,0,0,1,12.4,16.461L3.047,25.815a.978.978,0,0,1-.707.27Z" transform="translate(-0.262 -3.037)" fill="#df1839"/>
          <path id="Path_814" data-name="Path 814" d="M78.94,78.579a1.049,1.049,0,0,1-.715-.294,1.009,1.009,0,0,1,0-1.423L87.587,67.5a1.009,1.009,0,0,1,1.423,1.431l-9.354,9.354A1.049,1.049,0,0,1,78.94,78.579Z" transform="translate(-15.983 -13.798)" fill="#df1839"/>
          <path id="Path_815" data-name="Path 815" d="M11.7,78.579a1.033,1.033,0,0,1-.715-.294L1.629,68.931A1.009,1.009,0,0,1,3.052,67.5l9.354,9.362a1.005,1.005,0,0,1-.707,1.717Z" transform="translate(-0.267 -13.798)" fill="#df1839"/>
          <path id="Path_816" data-name="Path 816" d="M67.454,67.8H7.426a6.136,6.136,0,0,1-6.1-6.128V20.85a6.128,6.128,0,0,1,6.1-6.12H67.454a6.128,6.128,0,0,1,6.128,6.12V61.677A6.136,6.136,0,0,1,67.454,67.8ZM7.426,16.741A4.117,4.117,0,0,0,3.309,20.85V61.677a4.117,4.117,0,0,0,4.117,4.133H67.454a4.117,4.117,0,0,0,4.109-4.133V20.85a4.117,4.117,0,0,0-4.109-4.109Z" transform="translate(-0.262 -3.023)" fill="#df1839"/>
          <path id="Path_817" data-name="Path 817" d="M41.216,64.092A21.546,21.546,0,1,1,62.762,42.554,21.546,21.546,0,0,1,41.216,64.092Zm0-41.065A19.527,19.527,0,1,0,60.743,42.554,19.527,19.527,0,0,0,41.216,23.027Z" transform="translate(-4.026 -4.31)" fill="#df1839"/>
          <path id="Path_818" data-name="Path 818" d="M42.349,60.854a17.167,17.167,0,1,1,17.175-17.17,17.167,17.167,0,0,1-17.175,17.17Zm0-32.323A15.156,15.156,0,1,0,57.505,43.687,15.156,15.156,0,0,0,42.349,28.531Z" transform="translate(-5.159 -5.443)" fill="#df1839"/>
          <path id="Path_831" data-name="Path 831" d="M57.557,13.718H27.809a1.009,1.009,0,0,1-1.009-1V5.905A5.905,5.905,0,0,1,32.705,0H52.662a5.905,5.905,0,0,1,5.905,5.905v6.811A1.009,1.009,0,0,1,57.557,13.718ZM28.811,11.707H56.556v-5.8a3.9,3.9,0,0,0-3.894-3.894H32.705a3.9,3.9,0,0,0-3.894,3.894Z" transform="translate(-5.489 0)" fill="#df1839"/>
          <path id="Path_832" data-name="Path 832" d="M54.362,14.717H33.229a1.009,1.009,0,0,1-1.009-1V8.51a3.648,3.648,0,0,1,3.64-3.64h15.9A3.648,3.648,0,0,1,55.4,8.51v5.206a1.009,1.009,0,0,1-1.033,1ZM34.231,12.706h19.13V8.51a1.629,1.629,0,0,0-1.59-1.59h-15.9a1.629,1.629,0,0,0-1.59,1.59Z" transform="translate(-6.602 -1)" fill="#df1839"/>
          <path id="Path_833" data-name="Path 833" d="M83.839,14.94h-.087a1.009,1.009,0,0,1-.914-1.1c.151-1.637,1.59-5.007,2.432-6.962H78.291A29.788,29.788,0,0,0,75.8,13.906a1.009,1.009,0,1,1-1.979-.4,31.862,31.862,0,0,1,2.988-8.122A1.009,1.009,0,0,1,77.7,4.87h9.14a1.009,1.009,0,0,1,.914,1.439c-.755,1.59-2.758,6.112-2.909,7.725A1,1,0,0,1,83.839,14.94Z" transform="translate(-15.136 -1)" fill="#df1839"/>
          <path id="Path_834" data-name="Path 834" d="M90.362,21.7a.993.993,0,0,1-.914-.588,1.009,1.009,0,0,1,.477-1.311c2.917-1.335,5.436-5.46,6.358-7.153a20.743,20.743,0,0,0-7.622-3.243,1.009,1.009,0,0,1,.318-1.987A22.555,22.555,0,0,1,98.2,11.552a1,1,0,0,1,.286,1.24c-.135.278-3.4,6.867-7.741,8.854a.978.978,0,0,1-.381.056Z" transform="translate(-18.027 -1.522)" fill="#df1839"/>
          <path id="Path_835" data-name="Path 835" d="M3.645,15.471a1.033,1.033,0,0,1-.715-.294C1.324,13.564.212,6.689,0,5.362A1.009,1.009,0,0,1,.792,4.225L12.5,1.634a1.017,1.017,0,0,1,1.16.628,93.713,93.713,0,0,1,2.8,10.578,1.01,1.01,0,1,1-1.979.405c0-.064-1.208-5.842-2.384-9.45L2.151,5.99c.572,3.37,1.518,7.073,2.209,7.765a1,1,0,0,1,0,1.423.978.978,0,0,1-.715.294Z" transform="translate(0.014 -0.331)" fill="#df1839"/>
        </g>
      </g>
    </g>
  </g>
</svg>
