<svg xmlns="http://www.w3.org/2000/svg" xmlns:xlink="http://www.w3.org/1999/xlink" width="85" height="80" viewBox="0 0 85 80">
  <defs>
    <clipPath id="clip-Personal">
      <rect width="85" height="80"/>
    </clipPath>
  </defs>
  <g id="Personal" clip-path="url(#clip-Personal)">
    <g id="Group_166" data-name="Group 166" transform="translate(-434.434 -1473.434)">
      <g id="XMLID_1125_" transform="translate(438.436 1474.434)">
        <g id="XMLID_281_" transform="translate(0 0)">
          <path id="XMLID_1217_" d="M77.751,50.88a5.823,5.823,0,0,0-8.339-3.524,26.838,26.838,0,0,0-1.1-12.946,1.523,1.523,0,1,0-2.881.989A23.777,23.777,0,0,1,65.48,50.63L53.342,61.41A12.239,12.239,0,0,1,50.9,63.1a5.845,5.845,0,0,0-3.15-6.68L37,51.267a19.546,19.546,0,0,0-15.1-.716l-1.093.4a23.525,23.525,0,0,1,5.575-24.571L37.136,15.628h11.9l9.111,9.111A1.523,1.523,0,1,0,60.3,22.585L51.6,13.88l3.147-9.056a2.74,2.74,0,0,0-4.526-2.837l-.019.019a1.616,1.616,0,0,1-2.284,0,6.864,6.864,0,0,0-9.7,0,1.615,1.615,0,0,1-2.284,0,2.74,2.74,0,0,0-4.524,2.843l3.161,9.033L24.229,24.227A26.677,26.677,0,0,0,17.947,52l-2.4.882a4.361,4.361,0,0,0-3.462-1.71H4.366A4.371,4.371,0,0,0,0,55.541V73.615a4.371,4.371,0,0,0,4.366,4.366H44.51A23.966,23.966,0,0,0,61.3,71.166L76.214,56.672A5.815,5.815,0,0,0,77.751,50.88ZM37.08,5.525a4.631,4.631,0,0,0,3.3-1.365,3.814,3.814,0,0,1,5.388,0,4.666,4.666,0,0,0,5.758.664l-2.7,7.758H37.348L34.637,4.836a4.631,4.631,0,0,0,2.443.69ZM3.046,73.615V55.541a1.322,1.322,0,0,1,1.32-1.32h7.717a1.322,1.322,0,0,1,1.32,1.32V73.615a1.322,1.322,0,0,1-1.32,1.32H4.366A1.321,1.321,0,0,1,3.046,73.615ZM74.091,54.487,59.177,68.982A20.936,20.936,0,0,1,44.51,74.935H16.245a4.349,4.349,0,0,0,.2-1.32V55.8l6.5-2.387a16.483,16.483,0,0,1,12.73.6l10.753,5.15a2.8,2.8,0,0,1,1.178,3.994,2.8,2.8,0,0,1-3.239,1.205L30.089,59.821a1.523,1.523,0,0,0-.923,2.9L43.45,67.267a5.865,5.865,0,0,0,1.779.277c.071,0,.142,0,.213-.007a15.256,15.256,0,0,0,9.923-3.849L70.308,50.416a2.791,2.791,0,0,1,2.424-.64,2.78,2.78,0,0,1,1.359,4.712Z" transform="translate(0 -0.001)" fill="#df1839"/>
          <path id="XMLID_1298_" d="M410.262,182.036a1.524,1.524,0,1,0-1.077-.446A1.527,1.527,0,0,0,410.262,182.036Z" transform="translate(-346.484 -151.728)" fill="#df1839"/>
        </g>
      </g>
      <text id="_" data-name="₹" transform="translate(479.434 1519.434)" fill="#df1839" font-size="24" font-family="SegoeUI-Bold, Segoe UI" font-weight="700"><tspan x="-6.902" y="0">₹</tspan></text>
    </g>
  </g>
</svg>
