<svg xmlns="http://www.w3.org/2000/svg" xmlns:xlink="http://www.w3.org/1999/xlink" width="160" height="160" viewBox="0 0 160 160">
  <defs>
    <linearGradient id="linear-gradient" x1="1.542" y1="-0.174" x2="0.151" y2="0.727" gradientUnits="objectBoundingBox">
      <stop offset="0" stop-color="#df1839"/>
      <stop offset="1" stop-color="#0d0a64"/>
    </linearGradient>
    <clipPath id="clip-Quick_Turnaround_Time">
      <rect width="160" height="160"/>
    </clipPath>
  </defs>
  <g id="Quick_Turnaround_Time" data-name="Quick Turnaround Time" clip-path="url(#clip-Quick_Turnaround_Time)">
    <g id="Group_213" data-name="Group 213">
      <circle id="Ellipse_116" data-name="Ellipse 116" cx="78" cy="78" r="78" transform="translate(2 2)" fill="url(#linear-gradient)"/>
      <g id="pay" transform="translate(44.833 44.833)">
        <path id="Path_101" data-name="Path 101" d="M114.961,323.756l-2.956-1.771a5.816,5.816,0,0,0-2.982-.824h-4.449a10.5,10.5,0,0,0-2.7.348l-13.405,3.6a4.675,4.675,0,0,0-3.156,2.927l-11.791-6.379a4.62,4.62,0,0,0-3.156-.521,4.353,4.353,0,0,0-1.174.385,4.563,4.563,0,0,0-1.994,1.857,4.651,4.651,0,0,0-.614,2.31,4.6,4.6,0,0,0,2.294,4.015l21.133,12.644a5.8,5.8,0,0,0,3.055.869h16.355a5.785,5.785,0,0,0,2.133-.406l3.406-1.345v1.751h11.607V320H114.961ZM110.7,340.65a3.492,3.492,0,0,1-1.277.244H93.068a3.493,3.493,0,0,1-1.849-.532L70.057,327.7a2.309,2.309,0,0,1-1.154-2.015,2.358,2.358,0,0,1,.311-1.161,2.282,2.282,0,0,1,1-.92,2.191,2.191,0,0,1,.58-.188,2.447,2.447,0,0,1,.445-.041,2.276,2.276,0,0,1,1.138.3l12.786,6.909c.015.071.015.141.033.211a4.655,4.655,0,0,0,4.488,3.436,11.408,11.408,0,0,0,1.913-.341l12.06-3.227-.6-2.243-12.021,3.213c-.529.122-1.212.261-1.353.273a2.321,2.321,0,0,1-2.244-1.71,2.12,2.12,0,0,1-.067-.43s-.009-.281,0-.38a2.346,2.346,0,0,1,1.708-2.047l13.4-3.585a8.114,8.114,0,0,1,2.1-.276h4.449a3.481,3.481,0,0,1,1.789.495l4.15,2.485v12.5Zm6.58-18.328h6.964v18.572h-6.964Zm0,0" transform="translate(-56.924 -273.57)" fill="#fff"/>
        <path id="Path_102" data-name="Path 102" d="M47.874,9.286,41.647,3.06A10.374,10.374,0,0,0,34.261,0H19.667a5.843,5.843,0,0,0-2.6.613l-2.6,1.3a3.44,3.44,0,0,1-1.684.364l-1.179-.041V0H0V25.536H11.607V22.054h1.974l.7.464a12.8,12.8,0,0,0,6.61,2.128V39.465H69.645V9.286ZM9.286,23.215H2.321V2.321H9.286Zm6.282-2.628-1.291-.854H11.607V4.559L12.7,4.6a5.827,5.827,0,0,0,2.807-.608l2.6-1.3a3.489,3.489,0,0,1,1.56-.368H34.261A8.07,8.07,0,0,1,40.006,4.7l4.585,4.585H35.013L32.2,6.469,30.555,8.11l8.2,8.2a2.328,2.328,0,1,1-3.285,3.3L28.621,12.76l-.813.7a6.152,6.152,0,0,1-7.824.116l-.673-.545-1.463,1.8.68.551a8.461,8.461,0,0,0,2.365,1.332v5.609a10.467,10.467,0,0,1-5.325-1.737ZM32.08,19.5l1.751,1.752a4.677,4.677,0,0,0,6.558.006,5.876,5.876,0,1,0,.66-.842,4.565,4.565,0,0,0,.38-4.166H56.973a6.984,6.984,0,0,0,5.707,5.707v4.836A6.984,6.984,0,0,0,56.973,32.5H33.565a6.984,6.984,0,0,0-5.707-5.707V21.958A6.929,6.929,0,0,0,32.08,19.5Zm9.707,4.875a3.482,3.482,0,1,1,3.482,3.482A3.482,3.482,0,0,1,41.787,24.375ZM67.323,37.144H23.215V17.2a8.44,8.44,0,0,0,5.223-1.335l1.98,1.98A4.632,4.632,0,0,1,26.7,19.733H25.536v9.286H26.7a4.643,4.643,0,0,1,4.643,4.643v1.161H59.2V33.662a4.643,4.643,0,0,1,4.643-4.643H65V19.733H63.841A4.643,4.643,0,0,1,59.2,15.09V13.929H39.656l-2.321-2.321H67.323Zm0,0" transform="translate(0 0)" fill="#fff"/>
      </g>
    </g>
  </g>
</svg>
