<svg xmlns="http://www.w3.org/2000/svg" xmlns:xlink="http://www.w3.org/1999/xlink" width="160" height="160" viewBox="0 0 160 160">
  <defs>
    <linearGradient id="linear-gradient" x1="1.542" y1="-0.174" x2="0.151" y2="0.727" gradientUnits="objectBoundingBox">
      <stop offset="0" stop-color="#df1839"/>
      <stop offset="1" stop-color="#0d0a64"/>
    </linearGradient>
    <clipPath id="clip-Verifiication">
      <rect width="160" height="160"/>
    </clipPath>
  </defs>
  <g id="Verifiication" clip-path="url(#clip-Verifiication)">
    <g id="Group_213" data-name="Group 213">
      <circle id="Ellipse_113" data-name="Ellipse 113" cx="78" cy="78" r="78" transform="translate(2 2)" fill="url(#linear-gradient)"/>
      <g id="XMLID_806_" transform="translate(39.541 41.04)">
        <g id="XMLID_386_" transform="translate(0 0)">
          <path id="XMLID_389_" d="M81.3,53.121A32.112,32.112,0,0,0,56.33,24.963V20.921a5.409,5.409,0,0,0-1.306-10.659H43.569a5.409,5.409,0,0,0-1.306,10.659v4.054A31.946,31.946,0,0,0,26.6,33.593a32.29,32.29,0,0,0-2.7,3.066c-.04,0-.08-.006-.121-.006H12.436a1.591,1.591,0,1,0,0,3.182H21.73a31.9,31.9,0,0,0-2.823,6.115H1.591a1.591,1.591,0,1,0,0,3.182H18.008a32.349,32.349,0,0,0-.79,6.115H10.182a1.591,1.591,0,0,0,0,3.182h7.086a32.3,32.3,0,0,0,.993,6.115H7.955a1.591,1.591,0,1,0,0,3.182H19.278A32.134,32.134,0,0,0,46.144,88.3q1.577.156,3.153.155a32.215,32.215,0,0,0,17.539-5.184A1.591,1.591,0,0,0,65.1,80.6a28.956,28.956,0,1,1,8.528-8.539A1.591,1.591,0,1,0,76.3,73.8,32.241,32.241,0,0,0,81.3,53.121ZM41.342,15.672a2.23,2.23,0,0,1,2.227-2.227H55.025a2.227,2.227,0,0,1,0,4.455H43.569A2.23,2.23,0,0,1,41.342,15.672Zm4.1,8.756V21.081h7.7v3.341A32.418,32.418,0,0,0,45.446,24.427Z" transform="translate(0 -10.262)" fill="#fff"/>
          <path id="XMLID_391_" d="M437.361,425.5a1.592,1.592,0,1,0,1.125.466A1.6,1.6,0,0,0,437.361,425.5Z" transform="translate(-366.439 -359.436)" fill="#fff"/>
          <path id="XMLID_394_" d="M179.553,144.609a24.681,24.681,0,1,0,24.681,24.681A24.709,24.709,0,0,0,179.553,144.609Zm0,46.18a21.5,21.5,0,1,1,21.5-21.5A21.523,21.523,0,0,1,179.553,190.789Z" transform="translate(-130.232 -123.234)" fill="#fff"/>
          <path id="XMLID_397_" d="M275.527,219.877l-7.88,7.88a4.931,4.931,0,0,0-4.368,0l-3.527-3.527a1.591,1.591,0,1,0-2.25,2.25l3.527,3.527a4.944,4.944,0,1,0,8.868,0l7.649-7.649h0l.231-.231a1.591,1.591,0,1,0-2.25-2.25Zm-10.064,14.076a1.762,1.762,0,1,1,1.762-1.762A1.764,1.764,0,0,1,265.463,233.953Z" transform="translate(-216.142 -186.136)" fill="#fff"/>
          <path id="XMLID_398_" d="M400.72,289.86h-1.474a1.591,1.591,0,0,0,0,3.182h1.474a1.591,1.591,0,1,0,0-3.182Z" transform="translate(-334.388 -245.376)" fill="#fff"/>
          <path id="XMLID_399_" d="M196.147,289.616h-1.474a1.591,1.591,0,1,0,0,3.182h1.474a1.591,1.591,0,1,0,0-3.182Z" transform="translate(-162.363 -245.171)" fill="#fff"/>
          <path id="XMLID_400_" d="M301.714,187.475a1.591,1.591,0,0,0,1.591-1.591V184.41a1.591,1.591,0,0,0-3.182,0v1.474A1.591,1.591,0,0,0,301.714,187.475Z" transform="translate(-252.373 -155.365)" fill="#fff"/>
          <path id="XMLID_424_" d="M301.47,387.393a1.591,1.591,0,0,0-1.591,1.591v1.474a1.591,1.591,0,1,0,3.182,0v-1.474A1.591,1.591,0,0,0,301.47,387.393Z" transform="translate(-252.168 -327.391)" fill="#fff"/>
          <path id="XMLID_425_" d="M1.591,351.44a1.591,1.591,0,1,0,1.125,2.716,1.591,1.591,0,0,0-1.125-2.716Z" transform="translate(0 -297.159)" fill="#fff"/>
        </g>
      </g>
    </g>
  </g>
</svg>
